<svg xmlns="http://www.w3.org/2000/svg" version="1.1" xmlns:xlink="http://www.w3.org/1999/xlink" viewBox="0 0 200 200"><rect width="200" height="200" fill="url('#gradient')"></rect><defs><linearGradient id="gradient" gradientTransform="rotate(45 0.5 0.5)"><stop offset="0%" stop-color="#ceaa96"></stop><stop offset="100%" stop-color="#8fa983"></stop></linearGradient></defs><g><g fill="#445272" transform="matrix(3.027098045656101,0,0,3.027098045656101,8.971920500303412,116.25660808999896)" stroke="#c8512e" stroke-width="0.2"><path d="M6.46-2.97L6.46-2.97Q6.46-3.39 6.02-3.64Q5.58-3.90 4.35-4.17Q3.12-4.44 2.31-4.89Q1.51-5.33 1.09-5.97Q0.67-6.60 0.67-7.42L0.67-7.42Q0.67-8.88 1.88-9.82Q3.08-10.76 5.02-10.76L5.02-10.76Q7.11-10.76 8.38-9.81Q9.65-8.87 9.65-7.32L9.65-7.32L6.35-7.32Q6.35-8.59 5.01-8.59L5.01-8.59Q4.49-8.59 4.14-8.31Q3.79-8.02 3.79-7.59L3.79-7.59Q3.79-7.15 4.22-6.88Q4.65-6.60 5.59-6.43Q6.53-6.25 7.25-6.01L7.25-6.01Q9.63-5.19 9.63-3.07L9.63-3.07Q9.63-1.62 8.34-0.71Q7.06 0.20 5.02 0.20L5.02 0.20Q3.66 0.20 2.60-0.29Q1.53-0.78 0.94-1.62Q0.34-2.46 0.34-3.39L0.34-3.39L3.42-3.39Q3.44-2.66 3.91-2.32Q4.38-1.98 5.11-1.98L5.11-1.98Q5.78-1.98 6.12-2.26Q6.46-2.53 6.46-2.97ZM11.71-13.19L15-13.19L15-10.57L16.74-10.57L16.74-8.28L15-8.28L15-3.45Q15-2.85 15.21-2.62Q15.43-2.38 16.06-2.38L16.06-2.38Q16.55-2.38 16.88-2.44L16.88-2.44L16.88-0.09Q16.00 0.20 15.03 0.20L15.03 0.20Q13.33 0.20 12.52-0.61Q11.71-1.41 11.71-3.04L11.71-3.04L11.71-8.28L10.36-8.28L10.36-10.57L11.71-10.57L11.71-13.19ZM17.33-4.82L17.32-5.38Q17.32-6.96 17.94-8.20Q18.55-9.43 19.71-10.10Q20.86-10.76 22.41-10.76L22.41-10.76Q24.79-10.76 26.15-9.29Q27.52-7.82 27.52-5.29L27.52-5.29L27.52-5.18Q27.52-2.71 26.15-1.25Q24.78 0.20 22.43 0.20L22.43 0.20Q20.18 0.20 18.81-1.16Q17.44-2.51 17.33-4.82L17.33-4.82ZM20.63-5.77L20.62-5.18Q20.62-3.71 21.07-3.03Q21.53-2.34 22.43-2.34L22.43-2.34Q24.19-2.34 24.23-5.05L24.23-5.05L24.23-5.38Q24.23-8.22 22.41-8.22L22.41-8.22Q20.76-8.22 20.63-5.77L20.63-5.77ZM33.44-2.34L33.44-2.34Q34.13-2.34 34.51-2.72Q34.89-3.10 34.88-3.77L34.88-3.77L37.97-3.77Q37.97-2.03 36.72-0.92Q35.48 0.20 33.52 0.20L33.52 0.20Q31.21 0.20 29.88-1.25Q28.55-2.70 28.55-5.25L28.55-5.25L28.55-5.39Q28.55-6.99 29.15-8.22Q29.74-9.44 30.85-10.10Q31.96-10.76 33.49-10.76L33.49-10.76Q35.55-10.76 36.76-9.62Q37.97-8.48 37.97-6.52L37.97-6.52L34.88-6.52Q34.88-7.34 34.48-7.78Q34.08-8.22 33.41-8.22L33.41-8.22Q32.13-8.22 31.91-6.59L31.91-6.59Q31.85-6.07 31.85-5.17L31.85-5.17Q31.85-3.57 32.23-2.96Q32.61-2.34 33.44-2.34ZM45.91 0L43.60-3.94L42.68-3.01L42.68 0L39.38 0L39.38-15.01L42.68-15.01L42.68-7.04L43.01-7.48L45.49-10.57L49.43-10.57L45.73-6.22L49.68 0L45.91 0ZM52.85-10.57L54.52-4.61L56.28-10.57L59.80-10.57L55.50 1.77L55.31 2.22Q54.39 4.27 52.07 4.27L52.07 4.27Q51.43 4.27 50.71 4.07L50.71 4.07L50.71 1.72L51.14 1.72Q51.84 1.72 52.20 1.52Q52.57 1.32 52.74 0.80L52.74 0.80L53.01 0.10L49.34-10.57L52.85-10.57Z"></path></g></g></svg>